<mxfile host="Electron" agent="Mozilla/5.0 (Macintosh; Intel Mac OS X 10_15_7) AppleWebKit/537.36 (KHTML, like Gecko) draw.io/24.7.5 Chrome/126.0.6478.183 Electron/31.3.0 Safari/537.36" version="24.7.5">
  <diagram id="KyZTedVF2Pd37p67anNh" name="ページ1">
    <mxGraphModel dx="1704" dy="1036" grid="1" gridSize="10" guides="1" tooltips="1" connect="1" arrows="1" fold="1" page="1" pageScale="1" pageWidth="1169" pageHeight="827" math="0" shadow="0">
      <root>
        <mxCell id="0" />
        <mxCell id="1" parent="0" />
        <mxCell id="bSZhWrk3OscP5jFxT9xY-9" value="" style="rounded=1;whiteSpace=wrap;html=1;" vertex="1" parent="1">
          <mxGeometry x="770" y="119" width="270" height="590" as="geometry" />
        </mxCell>
        <mxCell id="bSZhWrk3OscP5jFxT9xY-8" value="" style="rounded=1;whiteSpace=wrap;html=1;" vertex="1" parent="1">
          <mxGeometry x="380" y="119" width="270" height="590" as="geometry" />
        </mxCell>
        <mxCell id="bSZhWrk3OscP5jFxT9xY-20" value="" style="rounded=1;whiteSpace=wrap;html=1;gradientColor=default;fillColor=none;dashed=1;dashPattern=12 12;" vertex="1" parent="1">
          <mxGeometry x="300" y="480" width="780" height="180" as="geometry" />
        </mxCell>
        <mxCell id="bSZhWrk3OscP5jFxT9xY-19" value="" style="rounded=1;whiteSpace=wrap;html=1;gradientColor=default;fillColor=none;dashed=1;dashPattern=12 12;" vertex="1" parent="1">
          <mxGeometry x="300" y="270" width="780" height="180" as="geometry" />
        </mxCell>
        <mxCell id="bSZhWrk3OscP5jFxT9xY-2" value="{service}-admin-sttate" style="sketch=0;points=[[0,0,0],[0.25,0,0],[0.5,0,0],[0.75,0,0],[1,0,0],[0,1,0],[0.25,1,0],[0.5,1,0],[0.75,1,0],[1,1,0],[0,0.25,0],[0,0.5,0],[0,0.75,0],[1,0.25,0],[1,0.5,0],[1,0.75,0]];outlineConnect=0;fontColor=#232F3E;fillColor=#7AA116;strokeColor=#ffffff;dashed=0;verticalLabelPosition=bottom;verticalAlign=top;align=center;html=1;fontSize=12;fontStyle=0;aspect=fixed;shape=mxgraph.aws4.resourceIcon;resIcon=mxgraph.aws4.s3;" vertex="1" parent="1">
          <mxGeometry x="476" y="129" width="78" height="78" as="geometry" />
        </mxCell>
        <mxCell id="bSZhWrk3OscP5jFxT9xY-4" value="{service}-admin-statedb-ai" style="sketch=0;outlineConnect=0;fontColor=#232F3E;gradientColor=none;fillColor=#C925D1;strokeColor=none;dashed=0;verticalLabelPosition=bottom;verticalAlign=top;align=center;html=1;fontSize=12;fontStyle=0;aspect=fixed;pointerEvents=1;shape=mxgraph.aws4.dynamodb_standard_access_table_class;" vertex="1" parent="1">
          <mxGeometry x="869" y="309.5" width="75" height="78" as="geometry" />
        </mxCell>
        <mxCell id="bSZhWrk3OscP5jFxT9xY-5" value="" style="sketch=0;points=[[0,0,0],[0.25,0,0],[0.5,0,0],[0.75,0,0],[1,0,0],[0,1,0],[0.25,1,0],[0.5,1,0],[0.75,1,0],[1,1,0],[0,0.25,0],[0,0.5,0],[0,0.75,0],[1,0.25,0],[1,0.5,0],[1,0.75,0]];outlineConnect=0;fontColor=#232F3E;fillColor=#C925D1;strokeColor=#ffffff;dashed=0;verticalLabelPosition=bottom;verticalAlign=top;align=center;html=1;fontSize=12;fontStyle=0;aspect=fixed;shape=mxgraph.aws4.resourceIcon;resIcon=mxgraph.aws4.dynamodb;" vertex="1" parent="1">
          <mxGeometry x="866" y="129" width="78" height="78" as="geometry" />
        </mxCell>
        <mxCell id="bSZhWrk3OscP5jFxT9xY-6" value="terraform/ai" style="html=1;verticalLabelPosition=bottom;align=center;labelBackgroundColor=#ffffff;verticalAlign=top;strokeWidth=2;strokeColor=#0080F0;shadow=0;dashed=0;shape=mxgraph.ios7.icons.folder;" vertex="1" parent="1">
          <mxGeometry x="430" y="299" width="180" height="110" as="geometry" />
        </mxCell>
        <mxCell id="bSZhWrk3OscP5jFxT9xY-7" value="terrafrom.state" style="whiteSpace=wrap;html=1;shape=mxgraph.basic.document" vertex="1" parent="1">
          <mxGeometry x="474" y="329" width="90" height="50" as="geometry" />
        </mxCell>
        <mxCell id="bSZhWrk3OscP5jFxT9xY-10" value="" style="shape=image;imageAspect=0;aspect=fixed;verticalLabelPosition=bottom;verticalAlign=top;image=data:image/png,iVBORw0KGgoAAAANSUhEUgAAAQgAAAC/CAYAAAACTkKGAAAEDmlDQ1BrQ0dDb2xvclNwYWNlR2VuZXJpY1JHQgAAOI2NVV1oHFUUPpu5syskzoPUpqaSDv41lLRsUtGE2uj+ZbNt3CyTbLRBkMns3Z1pJjPj/KRpKT4UQRDBqOCT4P9bwSchaqvtiy2itFCiBIMo+ND6R6HSFwnruTOzu5O4a73L3PnmnO9+595z7t4LkLgsW5beJQIsGq4t5dPis8fmxMQ6dMF90A190C0rjpUqlSYBG+PCv9rt7yDG3tf2t/f/Z+uuUEcBiN2F2Kw4yiLiZQD+FcWyXYAEQfvICddi+AnEO2ycIOISw7UAVxieD/Cyz5mRMohfRSwoqoz+xNuIB+cj9loEB3Pw2448NaitKSLLRck2q5pOI9O9g/t/tkXda8Tbg0+PszB9FN8DuPaXKnKW4YcQn1Xk3HSIry5ps8UQ/2W5aQnxIwBdu7yFcgrxPsRjVXu8HOh0qao30cArp9SZZxDfg3h1wTzKxu5E/LUxX5wKdX5SnAzmDx4A4OIqLbB69yMesE1pKojLjVdoNsfyiPi45hZmAn3uLWdpOtfQOaVmikEs7ovj8hFWpz7EV6mel0L9Xy23FMYlPYZenAx0yDB1/PX6dledmQjikjkXCxqMJS9WtfFCyH9XtSekEF+2dH+P4tzITduTygGfv58a5VCTH5PtXD7EFZiNyUDBhHnsFTBgE0SQIA9pfFtgo6cKGuhooeilaKH41eDs38Ip+f4At1Rq/sjr6NEwQqb/I/DQqsLvaFUjvAx+eWirddAJZnAj1DFJL0mSg/gcIpPkMBkhoyCSJ8lTZIxk0TpKDjXHliJzZPO50dR5ASNSnzeLvIvod0HG/mdkmOC0z8VKnzcQ2M/Yz2vKldduXjp9bleLu0ZWn7vWc+l0JGcaai10yNrUnXLP/8Jf59ewX+c3Wgz+B34Df+vbVrc16zTMVgp9um9bxEfzPU5kPqUtVWxhs6OiWTVW+gIfywB9uXi7CGcGW/zk98k/kmvJ95IfJn/j3uQ+4c5zn3Kfcd+AyF3gLnJfcl9xH3OfR2rUee80a+6vo7EK5mmXUdyfQlrYLTwoZIU9wsPCZEtP6BWGhAlhL3p2N6sTjRdduwbHsG9kq32sgBepc+xurLPW4T9URpYGJ3ym4+8zA05u44QjST8ZIoVtu3qE7fWmdn5LPdqvgcZz8Ww8BWJ8X3w0PhQ/wnCDGd+LvlHs8dRy6bLLDuKMaZ20tZrqisPJ5ONiCq8yKhYM5cCgKOu66Lsc0aYOtZdo5QCwezI4wm9J/v0X23mlZXOfBjj8Jzv3WrY5D+CsA9D7aMs2gGfjve8ArD6mePZSeCfEYt8CONWDw8FXTxrPqx/r9Vt4biXeANh8vV7/+/16ffMD1N8AuKD/A/8leAvFY9bLAAAARGVYSWZNTQAqAAAACAACARIAAwAAAAEAAQAAh2kABAAAAAEAAAAmAAAAAAACoAIABAAAAAEAAAEIoAMABAAAAAEAAAC/AAAAABJBjBkAAAIEaVRYdFhNTDpjb20uYWRvYmUueG1wAAAAAAA8eDp4bXBtZXRhIHhtbG5zOng9ImFkb2JlOm5zOm1ldGEvIiB4OnhtcHRrPSJYTVAgQ29yZSA2LjAuMCI+CiAgIDxyZGY6UkRGIHhtbG5zOnJkZj0iaHR0cDovL3d3dy53My5vcmcvMTk5OS8wMi8yMi1yZGYtc3ludGF4LW5zIyI+CiAgICAgIDxyZGY6RGVzY3JpcHRpb24gcmRmOmFib3V0PSIiCiAgICAgICAgICAgIHhtbG5zOmV4aWY9Imh0dHA6Ly9ucy5hZG9iZS5jb20vZXhpZi8xLjAvIgogICAgICAgICAgICB4bWxuczp0aWZmPSJodHRwOi8vbnMuYWRvYmUuY29tL3RpZmYvMS4wLyI+CiAgICAgICAgIDxleGlmOlBpeGVsWURpbWVuc2lvbj4xOTE8L2V4aWY6UGl4ZWxZRGltZW5zaW9uPgogICAgICAgICA8ZXhpZjpQaXhlbFhEaW1lbnNpb24+MjY0PC9leGlmOlBpeGVsWERpbWVuc2lvbj4KICAgICAgICAgPHRpZmY6T3JpZW50YXRpb24+MTwvdGlmZjpPcmllbnRhdGlvbj4KICAgICAgPC9yZGY6RGVzY3JpcHRpb24+CiAgIDwvcmRmOlJERj4KPC94OnhtcG1ldGE+CuJ6ODcAACTvSURBVHgB7V0LeFTF2f6W3AgEglFAWvibqK0Erz+1gNqi4VGoVVQUsFARREGJCPirICiQgKCCPAooKEjEG5SLN1D7gy2haiugUkUEbFWi8otJFBMSCISE/ec9y0nOnp05u9k9ezkn3zxPsnvmzPWdc96deeebGY9XOGLHCDACjIAEgRYSP/ZiBBgBRkBDgAmCHwRGgBFQIsAEoYSGbzACjAATBD8DjAAjoESACUIJDd9gBBgBJgh+BhgBRkCJABOEEhq+wQgwAkwQ/AwwAoyAEgEmCCU0fIMRYASYIPgZYAQYASUCTBBKaPgGI8AIMEHwM8AIMAJKBJgglNA468b69eudVWAurSMQ8PBqTke0ExeSEYgLAtyDiAvsnCkj4AwEmCCc0U5cSkYgLggwQcQFds6UEXAGAkwQzminqJSyvLycJk6ZRhde0pfSTu5CnbK7Ud8rr6OioqKo5MeJOg8BFimd12a2lLiwsJAKCgqI0jtQanoqpSYla+lWHzlKVFVDqVkZ9PjDhTRm1Ehb8uNEnIkAE4Qz2y3sUi9eWkT5dz8gSKCWMju2UaZTf5youryMTss9k555ch7l5eUpw/IN9yLAQwz3tq1fzYqLi+n0bt0pf/TdlNEyzZIcEDFJPBmZHTvQvtJy6tOnjzYM2bNnj1+afOF+BJggXN7GeKmhMeAlx8ue2bGd9vIbq33wGFHlQY/2h+9Gl56SLOJk05Z/7aTc3FwaNHQEQbtg1zwQYIJwaTvjJR4x6g7tpd6+c7f2kuNlNzqNGEo91Pe847R6zmHt74LTvFQp/DDEMLrMVuh1ZNPaNzZShw7ZmrhZWVlpDMLfXYgAaxAua1S8tLMemUdzH5pH1CaT8GKbnU9f8ND55x+nKbccoUvOSaLDNb5QrdKJ3t7moalLkmnv/7WgjAxvQI8DIStLq0T6qbRo3oMsZJoBdtE1E4SLGjOYAKkRQ7WHupxSR9NGe+nq3x1vIAYjDCAJuGdeb0FzViRT5WESuoVPl/Dd8f33EU0FnfqLTrRk4SPUv39/423+7gIEmCBc0IhYqDVh0nT6avdeymgfqDFoL/IR30s++cY6Gtr3OIEE9F6DCgI9TNEbLWjm82J44hHC5QnyMMapOVZHtQcOUK/eF9P8uQ9Sjx49jLf5u4MRYIJwcONt27aNxt/7AG155x/CbiGLzBoDqlaJoYM4XDH/2nq6d2h9SMRghgREUbKfaPHLybT8zSTypHupbYo5FJGPKPbRwCHDae7sAsrOzg4MxD6OQoAJwlHN5StsSUkJ3TulgNaufE4QQ2cpMUCA9B7w0PVX1tNE0WvI7hS8xxAMChDFrq88NGN5MhW/04I8WXKiqDwMY6tKGjNuDD00YyplZmYGS5rvJygCTBAJ2jCyYkGAnDxtJi1esFgpQOrE0Pui41R4ax11E7MSwYYSsrys/EAUEDIfFfrExx8LIbO9Qsg8KMQL4eY/fD+NGzfOKkm+l6AIMEEkaMOYi7VgwQIa/8DDRHX1lNm2lfm2Ni1ZXe6hrt289MCIY3R5D/uJwZwpiGLN31rQI8s99O0PyRYzHj4hc/6cAho8eLA5Gb5OYASYIBK4cVC01atX0/iJBfT91/vVAqSYmcjKOk4zRtbTlaLngBfX7l6DCiY9LwiZD65MJq8Y2qhnPMrorO7n0cJHZ7HptgrQBPNngkiwBtGLAwFy5JgJ9Nn2T6QCpD4z4RFi4QND6mjkVbElBr2c+ieIAkLmkteTadnrwYXMy/8wgBbMm01du3bVk+DPBESACSLBGgWm0VNnPBxcgKzx0AghQI653h4B0i4YdKKYJgytNhQLoggiZA6/dYQ249G+fXu7isDp2IgAE4SNYEaSVFMEyH559XTfsPqoCJCR1MEYF0Tx90/rae5zLemDD4MImTViCnZyPs2ZPcOYBH9PAASYIBKgEbS9GR5ZpJXESoCUmUYnQPEtiwCiWPduC5r9XJLSdNtnkVklNJY2NGfWVDbdtkQ0tjeZIGKLt19uECBHj5sk1jVUaKss/W6KC+3FEQJkzs/Fmonh9UrTaHO8RLsGSUA0XbGxBT20IomqD3sshMwKsQdFDj3+SCGbbidAQzJBxKERsDfDnffcrwmQGe07BCyG0gVIzAY0xTQ6DlVpUpY6UcwVJLHotaSgpts849EkeKMSmAkiKrDKE4UAOe7uKfT2WxukMxOIpZlGH/NQ/sC6sE2j5bknji+IAjMec15Mppdhuq0QMvU1Hpf/oR/PeMSp+ZggYgA89maAafRzzywPagFpp2l0DKoWURYgCphuT38mmd75p4WQecJ0m2c8IoI7rMhMEGHBFnok3+awC8XmsEmWFpDRNI0OvbTxCQmigOn2g8tTaM8uoU9YmW6fmPG4f9LdvMYjBs3FBBElkLE3w+SpM7WNVWSbw/qU+9iaRkepqrYlC6KA6fa0oiQ6cEC+WY0+45Galc67btuGvDohJgg1NmHdgT3DoKE3azqDTIBEotiAJautNy6m0WFVKoaRQBKY8Qi2B4WPKMrE0vJBtGbF8hiWsHllxQRhc3uf/euL6LPdX0qHE8gKm8O6WYC0C04QRcMeFBtaiK3z5CljinjgkGuYJOTwROzLm9ZGDGFjAjil6rPtYoNYyWpLhMJS7N7/fZym31KvRYrVgqrGEjrnG7Dp0I7okbF1lNPRG7CJrl4T7NK9duUaPg1MB8TmTyYIGwFdUvSCtuLSKsn0NLG9EztbEcBuWrMefcLWNDkxHwJMEDY9CVh9WVlaFmD0ZEwe27Rt2JJET6zxwY5uNDs5Ajo2k54Qu2uLbfhxkI/KYau9r3Z/Tnywjwqh8P0tYA8/0eYYc+fOnaLaqUGrninEyZlFKdR7dJK2RkF/EYJGbCYBdDywo/Y5I1JouYX+4A9JKu3YscPfi68iRoAJImIIfQkc1WQFYT4cggNJ/HQkiUZNTaF+E1Logy98m8mGENXVQUAOWNgF8rz/KdHdOu5RipOBQCTRj5XVgd7sExECTBARwRd+ZN/Zl1765BsPDb6zFf1xWopQ7T3ablDhp+rMmCAGkCTIEqQJ8gSJWg0rnFlT55Xa/yw255U/4Uusra0QU5twsjUH2vbxQqXfvNNDxSNTacTAxNsEJloggxgwlTltDjaXSdPwyRRYyJxvXQZ6CBXir5109assHvtFhgD3ICLDzzI2DKLyr6mnozuqaO9fjmpnYOLcS0x3mh2IAi/HcrEkuufoVFcLmbrOAAGy55A02viJsHMQdZedtQGcYOuQ1aYNrVr1NHm9Xlq37nlhbCa21mcXdQSYIKIEMSz9cBLVwkk1lCxQ/q8utfSXZw9RcVEtnXkqHvrAA3JRFJxchWXeOMkKIh1Mj/UXKkpFjVmyej0wi5MzONUnQFoRg9g2v1L8LVoyj/aX7GrYERtH/I25eSiTRAxajgkiiiBniBOo6gynZHvF5i+9exylXW9V0YtzarWcYVmpkYmhHJo+ActBIdKNfTSFet2aQv/41Nn6BMgBZPdrURfM4oAEldaRondQWVoidpYaRhX7/y3dYSqjtQBIHAHALroIMEHYhG9aaBMYWm4giqGDj1BlcTXNuv0Y4TwLDEfMTiMKIdaVV3roxompNGiK84RMEAPI7ZL8VBo7M4Vqa8XMhEKAhM4AYhh4VV8qKyujRfMf5RWb5ocixtdMEDYB7pvmDP0XDSQBN3l8jaZR4OxMlT6hz3i8u8dDeULIzJ+bTGVCq9O77DZVwdZkUDbMyoDUQG77yn0ai2xmQieG7mfn0u7du7V1FbzLta3NEXZiTBBhQ+cfsSk9CGNMEAU0iidmHqbSzaEJmS+/K4RMIe4VLvN1WxKJKFAWkBdIDGQGUoMAKSMGDK10AXLdunX0/t838jkZxocjAb4zQSRAI6AIIIpTTvEJmVtXHg0uZIpNVbCvY84NqQSrQ7yY8SQKPW+QVs+RaQQSs56ZqKLa+roGARLCI7vEQ4AJwqY28Q0xIk8MRHHBObWakLl6oRAmWni1JeIqITMjjTSrw9w/pcTFdFsnJpDUaX9K1UgrI8OrzcbI0MCsBHSGgoI76eiP30oFSFk89osPAkwQNuEe7hBDlT2IYmB/Idr97RA9cU9wIRPiX6xNt0EO2CrugmE+0+jWYsSDmQnZcAJ2CyCGeyfcRhUVFTR9+nRV1dk/gRBggkigxjAXBSQBl39L6EKmbrp9U2H0hEwQAwRImEZDgLQyjdYFSH1mAqdnZWZmmqvK1wmKABNEgjaMsVggCqOQed2Fx5UzHrpFJqwTIWTCWhFO1wiM6Tb1O9KAAAnygQAJMlIJkD5iKKNfZnehrVu38sxEU8FOkPBMEDY1REZGhk0pqZMBUUDIXPPkIYKQed5/CX1CYZGpEwVMt3OuSIvIdFsnlylPBTeN9p+Z+DPt/Oif1KNHD3Wl+E5CI8AEkdDNIy8ciAJC5vbXqglCZmqqmig0020x4wHrxXNuSm2S6bZODJpp9HVptOxN9cyEjxiqNP1BN43mmQl5+znJlwnCSa1lKiuIAkJm+QYhZE4VQqa4hum22UE0hPUiHKwZQzHdBjn4mUZjZkK1cayYmagur9BmJiq+38szE+YGcPA1E4SDGw9FB0nAaULm1iptx2wMO7Rl5tqdxn8aUQijJSvTbRAD9mYIxTTaNzNRdmJmooRnJhqhds03JgiXNCWIwihkXv87tZCpE4XZdBszExAgsYHN59+rTaP1KUvfzEQJ8cyESx4iSTV4wxgJKE72AlH4hMyj9MGNaTR2ntjS7kP5uZfa/guiR/HK+y3EIbrC4ko4bGqDmQmZw8xE7YED1Kv3xTR/7mssPspAcpkf9yBc1qB6dUAUEDK3rvUJmSe19C0GM1tkIrw+46EyjTZOWW7a9Ia2ZoJnJnSk3f3JBOHu9tU0iuvz6qnkLzW0dKYQMsVGTLI9KGQwGKcsV616VpuyzMvLkwVlP5ciwATh0oaVVeuWYcIi871qmjryhOm2OL1K5bBmwriYavDgwaqg7O9iBJggXNy45qrpQmbhvTXa0nJNyJSQBMgBuzk5ajFVehLt3VtirjJfR4gAE0SEADoxeqOQeUhsBis597Kmlh6aMdWJVeMy24wAE4TNgLolOV5Q5ZaWjKweTBCR4cexGQFXI8AEkQDN6xFmzOwYgUREgA2lbGqV9HRho9xEB2L44P00+s+3HmrZ8hAN6MPN0UQI/YK3tnvXHr/Um+cFP5FxaneQw6zHjtHU+T82lOAXndNp24snaZaQDZ78hRGIIwI8xIgT+OUlaYIcDvrl/vW+Gup46Xf0ww+pfv58wQjECwEmiDghj0NrVS53wAHVLfZnBGKKABNETOFuzAzrJEo3/4yGDwjcierAT0do9tJaYvGyES/+Fh8EmCDig7uWK1ZdPvtYmjj5+2d07eWt/UqC4QcMmtgxAvFEgAkinuiLvEECOPn7laUtxT6TP6O8Xo3bNn34KWsRcW6eZp89E0SCPAIgCgw7/vbndI0oMKOxcUu1cpiB4QcPQRKk8VxcDJ7mTLDG1Yniq/9trc1meKtrA0pYJ860XLO6JdUc9dC5Zxyn31x4lIcjASixhx0IMEHYgWKU0oBGYXYgh9P7VdO+/T803Bp3Uxt6bKJvR6gGT/7CCNiAAA8xbAAxVklgSDFnWa0ghyN+WS54voouu1Wc48mOEbAZASYImwCNxcE5KOoX34guhMQVbzlMd805yrqEBBv2Ch8BJojwsYt5TOgTRTNbUnHRzwkiptmhJ/H17uY71Dhk1xHrZmCb8TUThAMbv3ePowQRc/XCjtS5U0u/GhQsOci9CD9E+CISBJggIkEvznFxqtbXb2eIzWg7N5Rk/eY6OiY5XashAH9hBJqAABNEE8BKtKAYcsBpm9HuOIVmjm9LMNOuOMAGVonWVk4tDxOErS0XOC1pa/KKxEAUOFXr/rtStPUd7bLiUw5F8WLmXX2IZ3LsBpvtIGxCtHVr/7UUON6u8mBs+RdEIbOdsKmKCZVMWbnYRyM5qbFMNfXUMatN4zV/swWB2D7BthQ5MRPJyckRBTN17ZO9dNfcdIJxE5tF29du69evp+deWitOGzfO2NRTbm6ufZlwShoCTBA2PQjt27cXZ1b+hnBMne4yxbqrRa8l0clipeYKYRrNLjIEtm3bRn2vvI6uvvqPlJHRuKjNl2otnxUaGbzS2EwQUljC85xyz53icNt9fpFBEnTcQzdOTKWzBmfQO9vSuDfhh1Dwi5KSEho0dAT17JlHb7+7RRwu3IEwhNMdThsfOGQQZWdn6178aRMCHq9wNqXFyQgE8CCvXfm6eIjbBeBx8JhY3n3AQ3m9j1PR5GP0i9z4LrLCsOeUizOottbj/8KVVpDX+1NA+WPtUVlZSZOnzaTFCxYTtck0DSl8pfGdOF5NZWX/JvTi2NmLgIGH7U24uaa2ZsVyuvwPeVRZWkbmk7T1U7Q37/RQzhVpNPIe34pN1icCn5YFCxZQu3an0+KlL2g9Bn+9wRcePQe4rVs3MDn4ILH9PxOE7ZASbXzzFcJp2NVHjgqiqArIQSeK5RtaiE1q02g6C5kNGK1evZranZpD48dPF8TQhjLbmrUG0nSeytISuvx3vajsq52sPTSgZ/8XJgj7MdVSxGnY3oPfUUHBnVpvAgfimh30iYz2XppZlEJpv82gZS8Erq8wx3HrdXFxMZ3erTvdcMPNWs9LNkRDjww9s84d29OmTZs0IuYjAqP7RDBBRBdfmj59OlVUfEfD/zRQPNwlpHeL9WwhtmW29VKGmLEbNTWFzri2Nb26qa7ZCJmYmbjwkr7Up89VtK+0PECA1HFCTww9skVLFtKXu7ZTXl6efos/o4gAE0QUwdWTxq/c8qVPiuPp92rdYhCFcToU4TSi6Oil8koPDRx3El06NIOwJ6Vb9YnGmYmetOVfOzViSE8JtNtDzwu9BvTE0CMbM2qkDit/xgABJogYgKxngWk46BNbt26lX2Z30R58s5CpE8W7ezzUc0gaDbrDXUImZibyx99DOTln0do3NgpiyJbOTqCnBSIdM2qY1gNDT4xd7BFggog95pqotvOjf2pCJgihUkwrmp0uZL78rnuEzMLCQjEzkW05M4GeVYMAWVZGi+Y/SqwzmJ+O2F2zHUTssFbmtHhpEeWPvlvcT9KUe1nASizhFqbbSyfW0cgB/lvOycKH4hcrOwitfnc/QFRVK0TZNn42F3o50ZOqLi+js7qfR0WLH+eZCR2YOH9yDyLODYDsMa6GYdK9k/O1X0+zkIkwmpAprLUhZLbv15peLk5KeH0CayY6ZXfTyC+jZZpGfugxGZ1vZqJCI4116/5M6Fn16NHDGIS/xxEBU3PFsSScNc2ZPUOMtyto+A0DNKJQCZmwfBx8ZyvqOTAxhUzMTJz964u0NRMHqqoEMbST9hogQKLXsGjJPKr4fi/179+fn4IEQ4AJIsEaRJ/x2L17N3U/O9eSKD78KrGETMxMYDFVz5496T8l3wpi6EDSmYkTAuS9E24TPadDPDORYM+gsThMEEY0Euh7165d6f2/b9QMgmAYZGW6rQuZY6e2isvS8vLychox6g4xM5FzYjFVtpQYdAFy4FV9xdqJMq3HlECQc1EkCDBBSEBJJC8YBMEwCKbb+oyHeWo0UxhgZgobCiwtTzu3DS1a5rPIjIUNxcQp06hDhw703KpXRRnkU5Y+YijTekToGWG9Ci+sSqSnTF0WJgg1Ngl1B6bbGKfPn18oxu0VYrcqten22Jk+IXPt+uSoCZlYTOXxnEJzH1qkJAZdgMxq04YgQKJHhJ4RO+cgwAThnLbSSjpu3DghZPoMiJSm26I3oQuZ3a+1V8gMWEwlFlTJXKNp9DzaX7KLBUgZSA7wY4JwQCOZiwghEwZEoZhuf/KNtZBZ27gBll82sHg0ulAWUyG8zwKyTJuyZdNoI4LO/M4E4cx200odium22SLTKGRiCFJd2iJwCrJNutj45mbas2cPNS6m6mO5mErXGTBFW1ZWwgKkg58rY9HZktKIhsO/o/s/etwkMeNRIXSBwB2tUL1KSBdVYsOaM47T3i9aaOKmrNqasVbViV6EYjcnxAMx1B44IPbjvJiefXoBawwyMB3sxwTh4MZTFR0C4vjxM4jShem2ZMMVxIOAaLZqVKUn80d8iKWn5ebQM0/O4+XXMpBc4MdDDBc0orkKPiHzS20lJOwnZKbb4ZKDb2bCt0vWsmXzeG8GM/guu+YehMsa1FwdWDeOvuN/6O23NlBqVpbUgMkcR3WtTa2KA2qwNwMvv1ah5C5/Jgh3taeyNhAbR46ZQJ9t/0SsqPTfNl4Z6cQNXY8YfusImju7gI2cggHmovs8xHBRY1pVBSsk9T0oMlqla0KmVXjc02cmsDns7t0fabtisQVkMNTcdZ97EO5qz5BrowmZ980SLFArhh4ZlJrUuN0b9n4kMYOBvRkWPjqLBciQUXVfQCYI97VpyDWCMdSK1S/T8y+KfRh2/0fbFPbUrHb024t6UP6o4UwMISPp3oBMEO5t2ybXDITB27s1GTZXR2CCcHXzcuUYgcgQYJEyMvw4NiPgagSYIFzdvFw5RiAyBJggIsOPYzMCrkaACcLVzcuVYwQiQ4AJIjL8ODYj4GoEmCBc3bxcOUYgMgSYICLDj2MzAq5GgAnC1c3LlWMEIkOACSIy/Dg2I+BqBJggXN28XDlGIDIEmCAiw49jMwKuRoAJwtXNy5VjBCJDgAkiMvw4NiPgagSYIFzdvFw5RiAyBBq3EYosHY7NCDgGAZwf8uKLL9LXX39NP/30k1bu008/nQYMGEDDhw/nPTEMLenK/SCwk/OmTZu0U6E+//xzOiAOdoFr1aoVnXrqqdpOSb169SLs08guNARuv/12WrNmDaWmpoYWIYRQtbW11Lt3b3r11VdDCB15EGzcO3DgQPr2228tE1u2bBmNHDnSMkyzuel1kVu3bp1XvPhe0Xgh/WVlZXkLCgpchED0qjJ06NCQMA0Vez1cv379oldoQ8p4NvQ8Q/kUPzCG2M33qys0iPLycq1XcPXVV9OWLVtE+4fm0LMQBCGOsfcQup3s3IkAepR4NkJ16EHk5eWFGtzV4RxPEOg2dujQgTZv3hxRQ91www2EbjQ79yGAk8ZCdTy88EfK0QQBcujZs6d/jSK4evrpp5kkFPgdPoxTf+13R4+KLfaj6LAR7/r166U5TJgwQZz3sVvTqy699FJicgiEybEiJYYV6DlYOaExaCJYdnY2tWvXjioqKrQhSLBhyPz586kpvzpWZXDLvT179tD+/fuV1XnnnXe04Zo5gNAYaMaMGXTo0CHzLe26devWURWLQQ6y4cVtt91GTz31lLRM7GlAwKnyi5UY2aVLFy9EKZUrKyvzigfEUrQSvyyq6OwvQUAlAg4bNkwSOnZeolcgbedVq1bFrhAOzsmRQ4zi4mKlGNm/f3/65ptvCJ8qh+Pj8OshHmpVEBozZozyHt9wPgJ8hGBobehIQyl0WWXu3HPPtXzpzXFAIhhOjB8/3nxLEz3Rre7atavfPcx2VFdX+/nhAvPmGPasXLmS/vrXv2pGOPA/77zz6KqrriJ0tcM9lAbdZNh1YGiEPE466ST61a9+pekvQ4YMCXqYLsbhjz/+OIrj53Jzc2nw4MGavQjK/d5779G+ffsoJSWFzj//fBo1apQl0folZtMF6vrmm2/S+++/T6Knp6WKoWSfPn20oUKw2QXoUjt37mwoDa5lTvQg6NNPP224BYOp7t27N9TXnI4eEM+MjFxwlGFGRoYeTPtEOKsfKr/AiXrhtN4PhgcCS+nf1q1bw6qOIBZpekLECkjPKqyqXLp/U20uBHlJy6Wnp38G68arMBMPrzeYfYOwMPTu3bs3AAezR6RDDAwF2rZtG7S+CIOwKgeMdVya+mnEUZWO6hmT5XXBBReoiukYf3JMSU8UFGNHWWPgxQ3XqR5uYXUZkKSV9iErl9kPD40QSwPSNXrgvoqIzOnp13hxVC+yiiD0uKF8BiuzCkPjS2eso/E7jKVCKYMxDMhN5kIlVWNa+nfoUrqzgyDEzIienGM/HadBoKstc9ddd53MOyQ/mPvK3Pfffy/zjsjvww8/pN///veWaZxzzjm0Y8cOyzDmmwcPHtSGMxhORMNddtll0UiWLrzwQtqwYUOT08ZQJNhwo8mJcoQABBxHEKWlpQGVgAfG0+E6aAOYEpU56BB2O2gJGLPKHBYMqdYKYK4e03PXXnutLCqBJCZNmiS9F6kniM1uLGCYFmzK2arcMI4z46gvvrKKp7oXLVsPVX5O8HecSAlbBpmTCUeycCq/zp07NyzqMobBS9cUJ8b0mniIB/WVV15R9gQgjJptLSCMvfbaawHZYaUhRDtjHdFTAFGYLUhh7HXfffcRbD9CcWJooq1shJgGAXTRokUkutfSqOjVmEVbacAQPEE2KKvKiaEJDRo0iGpqajThV4YL4gJH4wrMK664QhNx9XSFZkArVqzQLxs+QbTdunVruMaXnJwcv2u+EAg4bXCkGq9iDByJgxgHOMx/ZlHKSoOQ2U6oxrLIx1xmlWBoVS8sODOXGeNwo7PSIGS6harM5nSNeTRVg7CyQ5HhiMVT5nrq11blUtlBBFuMpcLA/DzoGOhlMX6yBiHQiLU7+eSTpVni1y8S9+WXX0qjB7PW1CNBG5H9uk6fPp3wayhzZj1F9UuHX1v0Lsx/8JfpGW+99ZYsuwA/9BpkPY38/PyAsHZ7QEOQOUE0UhyhNwgikEWhF154Qepv5SmbqrYK31zvOW6IoXphjXPaTW1MrPZTOdkLZA4rLDctBbOxY8dKH2IjKanKgG64VVfcXBZcf/HFFzLvAD+Yn8uccSgjux+pH8j8u+++kyYD0lI5DMlkNivQR9hFBwHHiZQwmJG5559/XuYdkh9+tWROTDXKvAP8zGNZcwDV2Laqqqoh6JEjRxq+R/oFG7EkslOty4AIyy6xEHAcQaimJLG3Q7h7OhQWFkpbJdSp03CnFtPS0qT5Rupp565PkZZFFh8LtGRO3/lLdo/94oOA44YYmJKEei9TtbGnQ1NNmu+66y7p7AWaA+p4KG7Xrl2WwbB2ROaMwyWVtoJejGoKVpYmeiJCSJXdShg/FYFhlgRkqzJJV02zYhvBeLpwfyDiWeZQ83YcQaBikydPlhIE7qG7//HHH/tNCcJf5tBzkK1RQFgQTSj6A8JiKhRpQZCUOdXCL2FV2RAc434QgflXFH4qgmmI7LAvIACQmMwGAnYcqmXYN998s7Sm11xzjdQ/Ek+sd5E5rPMw72W6fft2WVCCNuV057ghBgBHA8HeQOYgfuGXGS+sitnxwkEVF1NZsiQ0v6Yq40gLvRGjwy/eGWecEfDS62HM+xSY7SIQDnYORUVFepSAT9TRiTthmbHSKwZB9qabbvJrO4iaVtsJoudot1P1wm655RYyC8rYeEbmjD8AsvuO8NPncZ34KQBWzo3r97D2AXPu+BNDk6DhEc9qXt3KDkLPE/tR6N9VnyiL2WG9gyo8ym+0WYBtg3GO32rOXWUHYbVOQlYOK1yaageBumOtiyyfpvihfa2cESNjuihvMGcMb/4OuxlgbvY3XhvbK1heiXrfcYZSRiDRAMYGseO7bAWnMc9QCCKUcuCllTnVAx1KmiqSSFSCgNFRKPWyChPsJVThGQpBqBYGWpVHvwdCd4Nz5BBDNILmoBHA9NqusR6GCY899piefNQ+YSClsjXAvhLi4QorbwxHzGsTwkooRpEwVBQvcNi5wYw6VJ0onEywV4ZqKGuVHkzjVTqKVbxEvOdoggCgELywg5RqHBgK6BAC8bCpRMZgaWA9Q6gO5BBsFSIeLit9RJUXLA1lOoYqfCL4gxDNFqXByoUfBGw2axYLg8UL5/5LL73UJJKA7vDRRx+Fk1VCxnE8Qeio4pcfDw2mQEN1eLHxUv34448RPWwgKdGNt3yQ0CtAbycYOehlB1mJ7nNIvQmYciNsMHJAffU/5IOTxqycHhafoTpznGB5IF1gIrrjWltYTVnilxk9DvwgyMzaQy1jU8OBJEBiYginjKqX7YMPPlBO0yojJ/ANx+5qbYUplH1MPWGnZayChJ0CrPcwdXXRRRcRWL5v375hPWTYv8A8PYceCEgGDnnjuD8sS8cWZJ06dQorH3P99C3Q9KXg+BU9++yzIyI2cx6Jco1ZCxAephSBIYYRZ555Ztgvnmw2S2VrEQwDvX0xk4H1HGgDWMqqhozB0kv0+64kiGiCHowgopk3p80IxBoB1wwxYg0c58cINAcEmCCaQytzHRmBMBFggggTOI7GCDQHBJggmkMrcx0ZgTARYIJoInB1dXVNjMHBGQHnIuDI1ZzxhBvTlpjzNjrV/gbGMPydEXAiAjzN6cRW4zIzAjFCgIcYMQKas2EEnIgAE4QTW43LzAjECAEmiBgBzdkwAk5EgAnCia3GZWYEYoQAE0SMgOZsGAEnIsAE4cRW4zIzAjFCgAkiRkBzNoyAExFggnBiq3GZGYEYIcAEESOgORtGwIkIMEE4sdW4zIxAjBBggogR0JwNI+BEBJggnNhqXGZGIEYIMEHECGjOhhFwIgJMEE5sNS4zIxAjBJggYgQ0Z8MIOBGB/wfEy1OQ17dPMgAAAABJRU5ErkJggg==;" vertex="1" parent="1">
          <mxGeometry x="20" y="309.5" width="137.53" height="99.5" as="geometry" />
        </mxCell>
        <mxCell id="bSZhWrk3OscP5jFxT9xY-15" value="{service}-admin-statedb-env1" style="sketch=0;outlineConnect=0;fontColor=#232F3E;gradientColor=none;fillColor=#C925D1;strokeColor=none;dashed=0;verticalLabelPosition=bottom;verticalAlign=top;align=center;html=1;fontSize=12;fontStyle=0;aspect=fixed;pointerEvents=1;shape=mxgraph.aws4.dynamodb_standard_access_table_class;" vertex="1" parent="1">
          <mxGeometry x="869" y="526" width="75" height="78" as="geometry" />
        </mxCell>
        <mxCell id="bSZhWrk3OscP5jFxT9xY-16" value="terraform/env1" style="html=1;verticalLabelPosition=bottom;align=center;labelBackgroundColor=#ffffff;verticalAlign=top;strokeWidth=2;strokeColor=#0080F0;shadow=0;dashed=0;shape=mxgraph.ios7.icons.folder;" vertex="1" parent="1">
          <mxGeometry x="430" y="510" width="180" height="110" as="geometry" />
        </mxCell>
        <mxCell id="bSZhWrk3OscP5jFxT9xY-17" value="terrafrom.state" style="whiteSpace=wrap;html=1;shape=mxgraph.basic.document" vertex="1" parent="1">
          <mxGeometry x="474" y="540" width="90" height="50" as="geometry" />
        </mxCell>
        <mxCell id="bSZhWrk3OscP5jFxT9xY-18" value="" style="shape=image;imageAspect=0;aspect=fixed;verticalLabelPosition=bottom;verticalAlign=top;image=data:image/png,iVBORw0KGgoAAAANSUhEUgAAAQgAAAC/CAYAAAACTkKGAAAEDmlDQ1BrQ0dDb2xvclNwYWNlR2VuZXJpY1JHQgAAOI2NVV1oHFUUPpu5syskzoPUpqaSDv41lLRsUtGE2uj+ZbNt3CyTbLRBkMns3Z1pJjPj/KRpKT4UQRDBqOCT4P9bwSchaqvtiy2itFCiBIMo+ND6R6HSFwnruTOzu5O4a73L3PnmnO9+595z7t4LkLgsW5beJQIsGq4t5dPis8fmxMQ6dMF90A190C0rjpUqlSYBG+PCv9rt7yDG3tf2t/f/Z+uuUEcBiN2F2Kw4yiLiZQD+FcWyXYAEQfvICddi+AnEO2ycIOISw7UAVxieD/Cyz5mRMohfRSwoqoz+xNuIB+cj9loEB3Pw2448NaitKSLLRck2q5pOI9O9g/t/tkXda8Tbg0+PszB9FN8DuPaXKnKW4YcQn1Xk3HSIry5ps8UQ/2W5aQnxIwBdu7yFcgrxPsRjVXu8HOh0qao30cArp9SZZxDfg3h1wTzKxu5E/LUxX5wKdX5SnAzmDx4A4OIqLbB69yMesE1pKojLjVdoNsfyiPi45hZmAn3uLWdpOtfQOaVmikEs7ovj8hFWpz7EV6mel0L9Xy23FMYlPYZenAx0yDB1/PX6dledmQjikjkXCxqMJS9WtfFCyH9XtSekEF+2dH+P4tzITduTygGfv58a5VCTH5PtXD7EFZiNyUDBhHnsFTBgE0SQIA9pfFtgo6cKGuhooeilaKH41eDs38Ip+f4At1Rq/sjr6NEwQqb/I/DQqsLvaFUjvAx+eWirddAJZnAj1DFJL0mSg/gcIpPkMBkhoyCSJ8lTZIxk0TpKDjXHliJzZPO50dR5ASNSnzeLvIvod0HG/mdkmOC0z8VKnzcQ2M/Yz2vKldduXjp9bleLu0ZWn7vWc+l0JGcaai10yNrUnXLP/8Jf59ewX+c3Wgz+B34Df+vbVrc16zTMVgp9um9bxEfzPU5kPqUtVWxhs6OiWTVW+gIfywB9uXi7CGcGW/zk98k/kmvJ95IfJn/j3uQ+4c5zn3Kfcd+AyF3gLnJfcl9xH3OfR2rUee80a+6vo7EK5mmXUdyfQlrYLTwoZIU9wsPCZEtP6BWGhAlhL3p2N6sTjRdduwbHsG9kq32sgBepc+xurLPW4T9URpYGJ3ym4+8zA05u44QjST8ZIoVtu3qE7fWmdn5LPdqvgcZz8Ww8BWJ8X3w0PhQ/wnCDGd+LvlHs8dRy6bLLDuKMaZ20tZrqisPJ5ONiCq8yKhYM5cCgKOu66Lsc0aYOtZdo5QCwezI4wm9J/v0X23mlZXOfBjj8Jzv3WrY5D+CsA9D7aMs2gGfjve8ArD6mePZSeCfEYt8CONWDw8FXTxrPqx/r9Vt4biXeANh8vV7/+/16ffMD1N8AuKD/A/8leAvFY9bLAAAARGVYSWZNTQAqAAAACAACARIAAwAAAAEAAQAAh2kABAAAAAEAAAAmAAAAAAACoAIABAAAAAEAAAEIoAMABAAAAAEAAAC/AAAAABJBjBkAAAIEaVRYdFhNTDpjb20uYWRvYmUueG1wAAAAAAA8eDp4bXBtZXRhIHhtbG5zOng9ImFkb2JlOm5zOm1ldGEvIiB4OnhtcHRrPSJYTVAgQ29yZSA2LjAuMCI+CiAgIDxyZGY6UkRGIHhtbG5zOnJkZj0iaHR0cDovL3d3dy53My5vcmcvMTk5OS8wMi8yMi1yZGYtc3ludGF4LW5zIyI+CiAgICAgIDxyZGY6RGVzY3JpcHRpb24gcmRmOmFib3V0PSIiCiAgICAgICAgICAgIHhtbG5zOmV4aWY9Imh0dHA6Ly9ucy5hZG9iZS5jb20vZXhpZi8xLjAvIgogICAgICAgICAgICB4bWxuczp0aWZmPSJodHRwOi8vbnMuYWRvYmUuY29tL3RpZmYvMS4wLyI+CiAgICAgICAgIDxleGlmOlBpeGVsWURpbWVuc2lvbj4xOTE8L2V4aWY6UGl4ZWxZRGltZW5zaW9uPgogICAgICAgICA8ZXhpZjpQaXhlbFhEaW1lbnNpb24+MjY0PC9leGlmOlBpeGVsWERpbWVuc2lvbj4KICAgICAgICAgPHRpZmY6T3JpZW50YXRpb24+MTwvdGlmZjpPcmllbnRhdGlvbj4KICAgICAgPC9yZGY6RGVzY3JpcHRpb24+CiAgIDwvcmRmOlJERj4KPC94OnhtcG1ldGE+CuJ6ODcAACTvSURBVHgB7V0LeFTF2f6W3AgEglFAWvibqK0Erz+1gNqi4VGoVVQUsFARREGJCPirICiQgKCCPAooKEjEG5SLN1D7gy2haiugUkUEbFWi8otJFBMSCISE/ec9y0nOnp05u9k9ezkn3zxPsnvmzPWdc96deeebGY9XOGLHCDACjIAEgRYSP/ZiBBgBRkBDgAmCHwRGgBFQIsAEoYSGbzACjAATBD8DjAAjoESACUIJDd9gBBgBJgh+BhgBRkCJABOEEhq+wQgwAkwQ/AwwAoyAEgEmCCU0fIMRYASYIPgZYAQYASUCTBBKaPgGI8AIMEHwM8AIMAJKBJgglNA468b69eudVWAurSMQ8PBqTke0ExeSEYgLAtyDiAvsnCkj4AwEmCCc0U5cSkYgLggwQcQFds6UEXAGAkwQzminqJSyvLycJk6ZRhde0pfSTu5CnbK7Ud8rr6OioqKo5MeJOg8BFimd12a2lLiwsJAKCgqI0jtQanoqpSYla+lWHzlKVFVDqVkZ9PjDhTRm1Ehb8uNEnIkAE4Qz2y3sUi9eWkT5dz8gSKCWMju2UaZTf5youryMTss9k555ch7l5eUpw/IN9yLAQwz3tq1fzYqLi+n0bt0pf/TdlNEyzZIcEDFJPBmZHTvQvtJy6tOnjzYM2bNnj1+afOF+BJggXN7GeKmhMeAlx8ue2bGd9vIbq33wGFHlQY/2h+9Gl56SLOJk05Z/7aTc3FwaNHQEQbtg1zwQYIJwaTvjJR4x6g7tpd6+c7f2kuNlNzqNGEo91Pe847R6zmHt74LTvFQp/DDEMLrMVuh1ZNPaNzZShw7ZmrhZWVlpDMLfXYgAaxAua1S8tLMemUdzH5pH1CaT8GKbnU9f8ND55x+nKbccoUvOSaLDNb5QrdKJ3t7moalLkmnv/7WgjAxvQI8DIStLq0T6qbRo3oMsZJoBdtE1E4SLGjOYAKkRQ7WHupxSR9NGe+nq3x1vIAYjDCAJuGdeb0FzViRT5WESuoVPl/Dd8f33EU0FnfqLTrRk4SPUv39/423+7gIEmCBc0IhYqDVh0nT6avdeymgfqDFoL/IR30s++cY6Gtr3OIEE9F6DCgI9TNEbLWjm82J44hHC5QnyMMapOVZHtQcOUK/eF9P8uQ9Sjx49jLf5u4MRYIJwcONt27aNxt/7AG155x/CbiGLzBoDqlaJoYM4XDH/2nq6d2h9SMRghgREUbKfaPHLybT8zSTypHupbYo5FJGPKPbRwCHDae7sAsrOzg4MxD6OQoAJwlHN5StsSUkJ3TulgNaufE4QQ2cpMUCA9B7w0PVX1tNE0WvI7hS8xxAMChDFrq88NGN5MhW/04I8WXKiqDwMY6tKGjNuDD00YyplZmYGS5rvJygCTBAJ2jCyYkGAnDxtJi1esFgpQOrE0Pui41R4ax11E7MSwYYSsrys/EAUEDIfFfrExx8LIbO9Qsg8KMQL4eY/fD+NGzfOKkm+l6AIMEEkaMOYi7VgwQIa/8DDRHX1lNm2lfm2Ni1ZXe6hrt289MCIY3R5D/uJwZwpiGLN31rQI8s99O0PyRYzHj4hc/6cAho8eLA5Gb5OYASYIBK4cVC01atX0/iJBfT91/vVAqSYmcjKOk4zRtbTlaLngBfX7l6DCiY9LwiZD65MJq8Y2qhnPMrorO7n0cJHZ7HptgrQBPNngkiwBtGLAwFy5JgJ9Nn2T6QCpD4z4RFi4QND6mjkVbElBr2c+ieIAkLmkteTadnrwYXMy/8wgBbMm01du3bVk+DPBESACSLBGgWm0VNnPBxcgKzx0AghQI653h4B0i4YdKKYJgytNhQLoggiZA6/dYQ249G+fXu7isDp2IgAE4SNYEaSVFMEyH559XTfsPqoCJCR1MEYF0Tx90/rae5zLemDD4MImTViCnZyPs2ZPcOYBH9PAASYIBKgEbS9GR5ZpJXESoCUmUYnQPEtiwCiWPduC5r9XJLSdNtnkVklNJY2NGfWVDbdtkQ0tjeZIGKLt19uECBHj5sk1jVUaKss/W6KC+3FEQJkzs/Fmonh9UrTaHO8RLsGSUA0XbGxBT20IomqD3sshMwKsQdFDj3+SCGbbidAQzJBxKERsDfDnffcrwmQGe07BCyG0gVIzAY0xTQ6DlVpUpY6UcwVJLHotaSgpts849EkeKMSmAkiKrDKE4UAOe7uKfT2WxukMxOIpZlGH/NQ/sC6sE2j5bknji+IAjMec15Mppdhuq0QMvU1Hpf/oR/PeMSp+ZggYgA89maAafRzzywPagFpp2l0DKoWURYgCphuT38mmd75p4WQecJ0m2c8IoI7rMhMEGHBFnok3+awC8XmsEmWFpDRNI0OvbTxCQmigOn2g8tTaM8uoU9YmW6fmPG4f9LdvMYjBs3FBBElkLE3w+SpM7WNVWSbw/qU+9iaRkepqrYlC6KA6fa0oiQ6cEC+WY0+45Galc67btuGvDohJgg1NmHdgT3DoKE3azqDTIBEotiAJautNy6m0WFVKoaRQBKY8Qi2B4WPKMrE0vJBtGbF8hiWsHllxQRhc3uf/euL6LPdX0qHE8gKm8O6WYC0C04QRcMeFBtaiK3z5CljinjgkGuYJOTwROzLm9ZGDGFjAjil6rPtYoNYyWpLhMJS7N7/fZym31KvRYrVgqrGEjrnG7Dp0I7okbF1lNPRG7CJrl4T7NK9duUaPg1MB8TmTyYIGwFdUvSCtuLSKsn0NLG9EztbEcBuWrMefcLWNDkxHwJMEDY9CVh9WVlaFmD0ZEwe27Rt2JJET6zxwY5uNDs5Ajo2k54Qu2uLbfhxkI/KYau9r3Z/Tnywjwqh8P0tYA8/0eYYc+fOnaLaqUGrninEyZlFKdR7dJK2RkF/EYJGbCYBdDywo/Y5I1JouYX+4A9JKu3YscPfi68iRoAJImIIfQkc1WQFYT4cggNJ/HQkiUZNTaF+E1Logy98m8mGENXVQUAOWNgF8rz/KdHdOu5RipOBQCTRj5XVgd7sExECTBARwRd+ZN/Zl1765BsPDb6zFf1xWopQ7T3ablDhp+rMmCAGkCTIEqQJ8gSJWg0rnFlT55Xa/yw255U/4Uusra0QU5twsjUH2vbxQqXfvNNDxSNTacTAxNsEJloggxgwlTltDjaXSdPwyRRYyJxvXQZ6CBXir5109assHvtFhgD3ICLDzzI2DKLyr6mnozuqaO9fjmpnYOLcS0x3mh2IAi/HcrEkuufoVFcLmbrOAAGy55A02viJsHMQdZedtQGcYOuQ1aYNrVr1NHm9Xlq37nlhbCa21mcXdQSYIKIEMSz9cBLVwkk1lCxQ/q8utfSXZw9RcVEtnXkqHvrAA3JRFJxchWXeOMkKIh1Mj/UXKkpFjVmyej0wi5MzONUnQFoRg9g2v1L8LVoyj/aX7GrYERtH/I25eSiTRAxajgkiiiBniBOo6gynZHvF5i+9exylXW9V0YtzarWcYVmpkYmhHJo+ActBIdKNfTSFet2aQv/41Nn6BMgBZPdrURfM4oAEldaRondQWVoidpYaRhX7/y3dYSqjtQBIHAHALroIMEHYhG9aaBMYWm4giqGDj1BlcTXNuv0Y4TwLDEfMTiMKIdaVV3roxompNGiK84RMEAPI7ZL8VBo7M4Vqa8XMhEKAhM4AYhh4VV8qKyujRfMf5RWb5ocixtdMEDYB7pvmDP0XDSQBN3l8jaZR4OxMlT6hz3i8u8dDeULIzJ+bTGVCq9O77DZVwdZkUDbMyoDUQG77yn0ai2xmQieG7mfn0u7du7V1FbzLta3NEXZiTBBhQ+cfsSk9CGNMEAU0iidmHqbSzaEJmS+/K4RMIe4VLvN1WxKJKFAWkBdIDGQGUoMAKSMGDK10AXLdunX0/t838jkZxocjAb4zQSRAI6AIIIpTTvEJmVtXHg0uZIpNVbCvY84NqQSrQ7yY8SQKPW+QVs+RaQQSs56ZqKLa+roGARLCI7vEQ4AJwqY28Q0xIk8MRHHBObWakLl6oRAmWni1JeIqITMjjTSrw9w/pcTFdFsnJpDUaX9K1UgrI8OrzcbI0MCsBHSGgoI76eiP30oFSFk89osPAkwQNuEe7hBDlT2IYmB/Idr97RA9cU9wIRPiX6xNt0EO2CrugmE+0+jWYsSDmQnZcAJ2CyCGeyfcRhUVFTR9+nRV1dk/gRBggkigxjAXBSQBl39L6EKmbrp9U2H0hEwQAwRImEZDgLQyjdYFSH1mAqdnZWZmmqvK1wmKABNEgjaMsVggCqOQed2Fx5UzHrpFJqwTIWTCWhFO1wiM6Tb1O9KAAAnygQAJMlIJkD5iKKNfZnehrVu38sxEU8FOkPBMEDY1REZGhk0pqZMBUUDIXPPkIYKQed5/CX1CYZGpEwVMt3OuSIvIdFsnlylPBTeN9p+Z+DPt/Oif1KNHD3Wl+E5CI8AEkdDNIy8ciAJC5vbXqglCZmqqmig0020x4wHrxXNuSm2S6bZODJpp9HVptOxN9cyEjxiqNP1BN43mmQl5+znJlwnCSa1lKiuIAkJm+QYhZE4VQqa4hum22UE0hPUiHKwZQzHdBjn4mUZjZkK1cayYmagur9BmJiq+38szE+YGcPA1E4SDGw9FB0nAaULm1iptx2wMO7Rl5tqdxn8aUQijJSvTbRAD9mYIxTTaNzNRdmJmooRnJhqhds03JgiXNCWIwihkXv87tZCpE4XZdBszExAgsYHN59+rTaP1KUvfzEQJ8cyESx4iSTV4wxgJKE72AlH4hMyj9MGNaTR2ntjS7kP5uZfa/guiR/HK+y3EIbrC4ko4bGqDmQmZw8xE7YED1Kv3xTR/7mssPspAcpkf9yBc1qB6dUAUEDK3rvUJmSe19C0GM1tkIrw+46EyjTZOWW7a9Ia2ZoJnJnSk3f3JBOHu9tU0iuvz6qnkLzW0dKYQMsVGTLI9KGQwGKcsV616VpuyzMvLkwVlP5ciwATh0oaVVeuWYcIi871qmjryhOm2OL1K5bBmwriYavDgwaqg7O9iBJggXNy45qrpQmbhvTXa0nJNyJSQBMgBuzk5ajFVehLt3VtirjJfR4gAE0SEADoxeqOQeUhsBis597Kmlh6aMdWJVeMy24wAE4TNgLolOV5Q5ZaWjKweTBCR4cexGQFXI8AEkQDN6xFmzOwYgUREgA2lbGqV9HRho9xEB2L44P00+s+3HmrZ8hAN6MPN0UQI/YK3tnvXHr/Um+cFP5FxaneQw6zHjtHU+T82lOAXndNp24snaZaQDZ78hRGIIwI8xIgT+OUlaYIcDvrl/vW+Gup46Xf0ww+pfv58wQjECwEmiDghj0NrVS53wAHVLfZnBGKKABNETOFuzAzrJEo3/4yGDwjcierAT0do9tJaYvGyES/+Fh8EmCDig7uWK1ZdPvtYmjj5+2d07eWt/UqC4QcMmtgxAvFEgAkinuiLvEECOPn7laUtxT6TP6O8Xo3bNn34KWsRcW6eZp89E0SCPAIgCgw7/vbndI0oMKOxcUu1cpiB4QcPQRKk8VxcDJ7mTLDG1Yniq/9trc1meKtrA0pYJ860XLO6JdUc9dC5Zxyn31x4lIcjASixhx0IMEHYgWKU0oBGYXYgh9P7VdO+/T803Bp3Uxt6bKJvR6gGT/7CCNiAAA8xbAAxVklgSDFnWa0ghyN+WS54voouu1Wc48mOEbAZASYImwCNxcE5KOoX34guhMQVbzlMd805yrqEBBv2Ch8BJojwsYt5TOgTRTNbUnHRzwkiptmhJ/H17uY71Dhk1xHrZmCb8TUThAMbv3ePowQRc/XCjtS5U0u/GhQsOci9CD9E+CISBJggIkEvznFxqtbXb2eIzWg7N5Rk/eY6OiY5XashAH9hBJqAABNEE8BKtKAYcsBpm9HuOIVmjm9LMNOuOMAGVonWVk4tDxOErS0XOC1pa/KKxEAUOFXr/rtStPUd7bLiUw5F8WLmXX2IZ3LsBpvtIGxCtHVr/7UUON6u8mBs+RdEIbOdsKmKCZVMWbnYRyM5qbFMNfXUMatN4zV/swWB2D7BthQ5MRPJyckRBTN17ZO9dNfcdIJxE5tF29du69evp+deWitOGzfO2NRTbm6ufZlwShoCTBA2PQjt27cXZ1b+hnBMne4yxbqrRa8l0clipeYKYRrNLjIEtm3bRn2vvI6uvvqPlJHRuKjNl2otnxUaGbzS2EwQUljC85xyz53icNt9fpFBEnTcQzdOTKWzBmfQO9vSuDfhh1Dwi5KSEho0dAT17JlHb7+7RRwu3IEwhNMdThsfOGQQZWdn6178aRMCHq9wNqXFyQgE8CCvXfm6eIjbBeBx8JhY3n3AQ3m9j1PR5GP0i9z4LrLCsOeUizOottbj/8KVVpDX+1NA+WPtUVlZSZOnzaTFCxYTtck0DSl8pfGdOF5NZWX/JvTi2NmLgIGH7U24uaa2ZsVyuvwPeVRZWkbmk7T1U7Q37/RQzhVpNPIe34pN1icCn5YFCxZQu3an0+KlL2g9Bn+9wRcePQe4rVs3MDn4ILH9PxOE7ZASbXzzFcJp2NVHjgqiqArIQSeK5RtaiE1q02g6C5kNGK1evZranZpD48dPF8TQhjLbmrUG0nSeytISuvx3vajsq52sPTSgZ/8XJgj7MdVSxGnY3oPfUUHBnVpvAgfimh30iYz2XppZlEJpv82gZS8Erq8wx3HrdXFxMZ3erTvdcMPNWs9LNkRDjww9s84d29OmTZs0IuYjAqP7RDBBRBdfmj59OlVUfEfD/zRQPNwlpHeL9WwhtmW29VKGmLEbNTWFzri2Nb26qa7ZCJmYmbjwkr7Up89VtK+0PECA1HFCTww9skVLFtKXu7ZTXl6efos/o4gAE0QUwdWTxq/c8qVPiuPp92rdYhCFcToU4TSi6Oil8koPDRx3El06NIOwJ6Vb9YnGmYmetOVfOzViSE8JtNtDzwu9BvTE0CMbM2qkDit/xgABJogYgKxngWk46BNbt26lX2Z30R58s5CpE8W7ezzUc0gaDbrDXUImZibyx99DOTln0do3NgpiyJbOTqCnBSIdM2qY1gNDT4xd7BFggog95pqotvOjf2pCJgihUkwrmp0uZL78rnuEzMLCQjEzkW05M4GeVYMAWVZGi+Y/SqwzmJ+O2F2zHUTssFbmtHhpEeWPvlvcT9KUe1nASizhFqbbSyfW0cgB/lvOycKH4hcrOwitfnc/QFRVK0TZNn42F3o50ZOqLi+js7qfR0WLH+eZCR2YOH9yDyLODYDsMa6GYdK9k/O1X0+zkIkwmpAprLUhZLbv15peLk5KeH0CayY6ZXfTyC+jZZpGfugxGZ1vZqJCI4116/5M6Fn16NHDGIS/xxEBU3PFsSScNc2ZPUOMtyto+A0DNKJQCZmwfBx8ZyvqOTAxhUzMTJz964u0NRMHqqoEMbST9hogQKLXsGjJPKr4fi/179+fn4IEQ4AJIsEaRJ/x2L17N3U/O9eSKD78KrGETMxMYDFVz5496T8l3wpi6EDSmYkTAuS9E24TPadDPDORYM+gsThMEEY0Euh7165d6f2/b9QMgmAYZGW6rQuZY6e2isvS8vLychox6g4xM5FzYjFVtpQYdAFy4FV9xdqJMq3HlECQc1EkCDBBSEBJJC8YBMEwCKbb+oyHeWo0UxhgZgobCiwtTzu3DS1a5rPIjIUNxcQp06hDhw703KpXRRnkU5Y+YijTekToGWG9Ci+sSqSnTF0WJgg1Ngl1B6bbGKfPn18oxu0VYrcqten22Jk+IXPt+uSoCZlYTOXxnEJzH1qkJAZdgMxq04YgQKJHhJ4RO+cgwAThnLbSSjpu3DghZPoMiJSm26I3oQuZ3a+1V8gMWEwlFlTJXKNp9DzaX7KLBUgZSA7wY4JwQCOZiwghEwZEoZhuf/KNtZBZ27gBll82sHg0ulAWUyG8zwKyTJuyZdNoI4LO/M4E4cx200odium22SLTKGRiCFJd2iJwCrJNutj45mbas2cPNS6m6mO5mErXGTBFW1ZWwgKkg58rY9HZktKIhsO/o/s/etwkMeNRIXSBwB2tUL1KSBdVYsOaM47T3i9aaOKmrNqasVbViV6EYjcnxAMx1B44IPbjvJiefXoBawwyMB3sxwTh4MZTFR0C4vjxM4jShem2ZMMVxIOAaLZqVKUn80d8iKWn5ebQM0/O4+XXMpBc4MdDDBc0orkKPiHzS20lJOwnZKbb4ZKDb2bCt0vWsmXzeG8GM/guu+YehMsa1FwdWDeOvuN/6O23NlBqVpbUgMkcR3WtTa2KA2qwNwMvv1ah5C5/Jgh3taeyNhAbR46ZQJ9t/0SsqPTfNl4Z6cQNXY8YfusImju7gI2cggHmovs8xHBRY1pVBSsk9T0oMlqla0KmVXjc02cmsDns7t0fabtisQVkMNTcdZ97EO5qz5BrowmZ980SLFArhh4ZlJrUuN0b9n4kMYOBvRkWPjqLBciQUXVfQCYI97VpyDWCMdSK1S/T8y+KfRh2/0fbFPbUrHb024t6UP6o4UwMISPp3oBMEO5t2ybXDITB27s1GTZXR2CCcHXzcuUYgcgQYJEyMvw4NiPgagSYIFzdvFw5RiAyBJggIsOPYzMCrkaACcLVzcuVYwQiQ4AJIjL8ODYj4GoEmCBc3bxcOUYgMgSYICLDj2MzAq5GgAnC1c3LlWMEIkOACSIy/Dg2I+BqBJggXN28XDlGIDIEmCAiw49jMwKuRoAJwtXNy5VjBCJDgAkiMvw4NiPgagSYIFzdvFw5RiAyBBq3EYosHY7NCDgGAZwf8uKLL9LXX39NP/30k1bu008/nQYMGEDDhw/nPTEMLenK/SCwk/OmTZu0U6E+//xzOiAOdoFr1aoVnXrqqdpOSb169SLs08guNARuv/12WrNmDaWmpoYWIYRQtbW11Lt3b3r11VdDCB15EGzcO3DgQPr2228tE1u2bBmNHDnSMkyzuel1kVu3bp1XvPhe0Xgh/WVlZXkLCgpchED0qjJ06NCQMA0Vez1cv379oldoQ8p4NvQ8Q/kUPzCG2M33qys0iPLycq1XcPXVV9OWLVtE+4fm0LMQBCGOsfcQup3s3IkAepR4NkJ16EHk5eWFGtzV4RxPEOg2dujQgTZv3hxRQ91www2EbjQ79yGAk8ZCdTy88EfK0QQBcujZs6d/jSK4evrpp5kkFPgdPoxTf+13R4+KLfaj6LAR7/r166U5TJgwQZz3sVvTqy699FJicgiEybEiJYYV6DlYOaExaCJYdnY2tWvXjioqKrQhSLBhyPz586kpvzpWZXDLvT179tD+/fuV1XnnnXe04Zo5gNAYaMaMGXTo0CHzLe26devWURWLQQ6y4cVtt91GTz31lLRM7GlAwKnyi5UY2aVLFy9EKZUrKyvzigfEUrQSvyyq6OwvQUAlAg4bNkwSOnZeolcgbedVq1bFrhAOzsmRQ4zi4mKlGNm/f3/65ptvCJ8qh+Pj8OshHmpVEBozZozyHt9wPgJ8hGBobehIQyl0WWXu3HPPtXzpzXFAIhhOjB8/3nxLEz3Rre7atavfPcx2VFdX+/nhAvPmGPasXLmS/vrXv2pGOPA/77zz6KqrriJ0tcM9lAbdZNh1YGiEPE466ST61a9+pekvQ4YMCXqYLsbhjz/+OIrj53Jzc2nw4MGavQjK/d5779G+ffsoJSWFzj//fBo1apQl0folZtMF6vrmm2/S+++/T6Knp6WKoWSfPn20oUKw2QXoUjt37mwoDa5lTvQg6NNPP224BYOp7t27N9TXnI4eEM+MjFxwlGFGRoYeTPtEOKsfKr/AiXrhtN4PhgcCS+nf1q1bw6qOIBZpekLECkjPKqyqXLp/U20uBHlJy6Wnp38G68arMBMPrzeYfYOwMPTu3bs3AAezR6RDDAwF2rZtG7S+CIOwKgeMdVya+mnEUZWO6hmT5XXBBReoiukYf3JMSU8UFGNHWWPgxQ3XqR5uYXUZkKSV9iErl9kPD40QSwPSNXrgvoqIzOnp13hxVC+yiiD0uKF8BiuzCkPjS2eso/E7jKVCKYMxDMhN5kIlVWNa+nfoUrqzgyDEzIienGM/HadBoKstc9ddd53MOyQ/mPvK3Pfffy/zjsjvww8/pN///veWaZxzzjm0Y8cOyzDmmwcPHtSGMxhORMNddtll0UiWLrzwQtqwYUOT08ZQJNhwo8mJcoQABBxHEKWlpQGVgAfG0+E6aAOYEpU56BB2O2gJGLPKHBYMqdYKYK4e03PXXnutLCqBJCZNmiS9F6kniM1uLGCYFmzK2arcMI4z46gvvrKKp7oXLVsPVX5O8HecSAlbBpmTCUeycCq/zp07NyzqMobBS9cUJ8b0mniIB/WVV15R9gQgjJptLSCMvfbaawHZYaUhRDtjHdFTAFGYLUhh7HXfffcRbD9CcWJooq1shJgGAXTRokUkutfSqOjVmEVbacAQPEE2KKvKiaEJDRo0iGpqajThV4YL4gJH4wrMK664QhNx9XSFZkArVqzQLxs+QbTdunVruMaXnJwcv2u+EAg4bXCkGq9iDByJgxgHOMx/ZlHKSoOQ2U6oxrLIx1xmlWBoVS8sODOXGeNwo7PSIGS6harM5nSNeTRVg7CyQ5HhiMVT5nrq11blUtlBBFuMpcLA/DzoGOhlMX6yBiHQiLU7+eSTpVni1y8S9+WXX0qjB7PW1CNBG5H9uk6fPp3wayhzZj1F9UuHX1v0Lsx/8JfpGW+99ZYsuwA/9BpkPY38/PyAsHZ7QEOQOUE0UhyhNwgikEWhF154Qepv5SmbqrYK31zvOW6IoXphjXPaTW1MrPZTOdkLZA4rLDctBbOxY8dKH2IjKanKgG64VVfcXBZcf/HFFzLvAD+Yn8uccSgjux+pH8j8u+++kyYD0lI5DMlkNivQR9hFBwHHiZQwmJG5559/XuYdkh9+tWROTDXKvAP8zGNZcwDV2Laqqqoh6JEjRxq+R/oFG7EkslOty4AIyy6xEHAcQaimJLG3Q7h7OhQWFkpbJdSp03CnFtPS0qT5Rupp565PkZZFFh8LtGRO3/lLdo/94oOA44YYmJKEei9TtbGnQ1NNmu+66y7p7AWaA+p4KG7Xrl2WwbB2ROaMwyWVtoJejGoKVpYmeiJCSJXdShg/FYFhlgRkqzJJV02zYhvBeLpwfyDiWeZQ83YcQaBikydPlhIE7qG7//HHH/tNCcJf5tBzkK1RQFgQTSj6A8JiKhRpQZCUOdXCL2FV2RAc434QgflXFH4qgmmI7LAvIACQmMwGAnYcqmXYN998s7Sm11xzjdQ/Ek+sd5E5rPMw72W6fft2WVCCNuV057ghBgBHA8HeQOYgfuGXGS+sitnxwkEVF1NZsiQ0v6Yq40gLvRGjwy/eGWecEfDS62HM+xSY7SIQDnYORUVFepSAT9TRiTthmbHSKwZB9qabbvJrO4iaVtsJoudot1P1wm655RYyC8rYeEbmjD8AsvuO8NPncZ34KQBWzo3r97D2AXPu+BNDk6DhEc9qXt3KDkLPE/tR6N9VnyiL2WG9gyo8ym+0WYBtg3GO32rOXWUHYbVOQlYOK1yaageBumOtiyyfpvihfa2cESNjuihvMGcMb/4OuxlgbvY3XhvbK1heiXrfcYZSRiDRAMYGseO7bAWnMc9QCCKUcuCllTnVAx1KmiqSSFSCgNFRKPWyChPsJVThGQpBqBYGWpVHvwdCd4Nz5BBDNILmoBHA9NqusR6GCY899piefNQ+YSClsjXAvhLi4QorbwxHzGsTwkooRpEwVBQvcNi5wYw6VJ0onEywV4ZqKGuVHkzjVTqKVbxEvOdoggCgELywg5RqHBgK6BAC8bCpRMZgaWA9Q6gO5BBsFSIeLit9RJUXLA1lOoYqfCL4gxDNFqXByoUfBGw2axYLg8UL5/5LL73UJJKA7vDRRx+Fk1VCxnE8Qeio4pcfDw2mQEN1eLHxUv34448RPWwgKdGNt3yQ0CtAbycYOehlB1mJ7nNIvQmYciNsMHJAffU/5IOTxqycHhafoTpznGB5IF1gIrrjWltYTVnilxk9DvwgyMzaQy1jU8OBJEBiYginjKqX7YMPPlBO0yojJ/ANx+5qbYUplH1MPWGnZayChJ0CrPcwdXXRRRcRWL5v375hPWTYv8A8PYceCEgGDnnjuD8sS8cWZJ06dQorH3P99C3Q9KXg+BU9++yzIyI2cx6Jco1ZCxAephSBIYYRZ555Ztgvnmw2S2VrEQwDvX0xk4H1HGgDWMqqhozB0kv0+64kiGiCHowgopk3p80IxBoB1wwxYg0c58cINAcEmCCaQytzHRmBMBFggggTOI7GCDQHBJggmkMrcx0ZgTARYIJoInB1dXVNjMHBGQHnIuDI1ZzxhBvTlpjzNjrV/gbGMPydEXAiAjzN6cRW4zIzAjFCgIcYMQKas2EEnIgAE4QTW43LzAjECAEmiBgBzdkwAk5EgAnCia3GZWYEYoQAE0SMgOZsGAEnIsAE4cRW4zIzAjFCgAkiRkBzNoyAExFggnBiq3GZGYEYIcAEESOgORtGwIkIMEE4sdW4zIxAjBBggogR0JwNI+BEBJggnNhqXGZGIEYIMEHECGjOhhFwIgJMEE5sNS4zIxAjBJggYgQ0Z8MIOBGB/wfEy1OQ17dPMgAAAABJRU5ErkJggg==;" vertex="1" parent="1">
          <mxGeometry x="20" y="490.5" width="137.53" height="99.5" as="geometry" />
        </mxCell>
        <mxCell id="bSZhWrk3OscP5jFxT9xY-21" value="" style="shape=flexArrow;endArrow=classic;html=1;rounded=0;" edge="1" parent="1">
          <mxGeometry width="50" height="50" relative="1" as="geometry">
            <mxPoint x="80" y="440" as="sourcePoint" />
            <mxPoint x="250" y="440" as="targetPoint" />
          </mxGeometry>
        </mxCell>
        <mxCell id="bSZhWrk3OscP5jFxT9xY-23" value="apply -chdir=ai ai.plan" style="edgeLabel;html=1;align=center;verticalAlign=middle;resizable=0;points=[];" vertex="1" connectable="0" parent="bSZhWrk3OscP5jFxT9xY-21">
          <mxGeometry x="-0.1765" y="4" relative="1" as="geometry">
            <mxPoint y="-12" as="offset" />
          </mxGeometry>
        </mxCell>
        <mxCell id="bSZhWrk3OscP5jFxT9xY-22" value="" style="shape=flexArrow;endArrow=classic;html=1;rounded=0;" edge="1" parent="1">
          <mxGeometry width="50" height="50" relative="1" as="geometry">
            <mxPoint x="90" y="620" as="sourcePoint" />
            <mxPoint x="260" y="620" as="targetPoint" />
          </mxGeometry>
        </mxCell>
        <mxCell id="bSZhWrk3OscP5jFxT9xY-24" value="apply -chdir=env1 env1.plan" style="edgeLabel;html=1;align=center;verticalAlign=middle;resizable=0;points=[];" vertex="1" connectable="0" parent="bSZhWrk3OscP5jFxT9xY-22">
          <mxGeometry x="0.0118" y="-1" relative="1" as="geometry">
            <mxPoint y="-17" as="offset" />
          </mxGeometry>
        </mxCell>
      </root>
    </mxGraphModel>
  </diagram>
</mxfile>
